# xmcd
#
# Track frame offsets: 
#        150
#        11372
#        33044
#        50703
#        70480
#        96582
#        123436
#        141848
#        170513
#        184522
#        221268
#        239039
#        254943
#        271404
#        293410
#
# Disc length: 4317 seconds
#
# Revision: 0
# Processed by: cddbd v1.5.2PL0 Copyright (c) Steve Scherf et al.
# Submitted via: ExactAudioCopy v0.95b4
#
DISCID=e410db0f
DTITLE=Code Blue Band - Four Mojos Working Overtime - Live in Hays, KS
DYEAR=1999
DGENRE=Blues
TTITLE0=Give Me All Your Loving (Wilson)
TTITLE1=Crossroards (Johnson)
TTITLE2=Mellow Down Easy (Dixon)
TTITLE3=Goin' Down (Nix)
TTITLE4=The Thrill Is Gone (King)
TTITLE5=Shakey Ground (Bowen/Boyd)
TTITLE6=Key To The Highway (Broonzy/Seger)
TTITLE7=Look What You've Done (Nocentelli)
TTITLE8=Not My Plan (Cain)
TTITLE9=Tootsie Roll Blues (Hodges/Pennington)
TTITLE10=Heart Attack and Vine (Waits)
TTITLE11=Messin' With The Kid (Wells)
TTITLE12=It Takes A Lot To Laugh, It Takes A Train To Cry
TTITLE13=Walking Blues (Johnson)
TTITLE14=Seven Days (Dylan)
EXTD=
EXTT0=
EXTT1=
EXTT2=
EXTT3=
EXTT4=
EXTT5=
EXTT6=
EXTT7=
EXTT8=
EXTT9=
EXTT10=
EXTT11=
EXTT12=
EXTT13=
EXTT14=
PLAYORDER=
